<svg width="240" height="221" viewBox="0 0 240 221" fill="none" xmlns="http://www.w3.org/2000/svg">
<path d="M143.558 101C144.568 110.253 137.416 121.145 131.219 121.145C125.159 121.145 120.519 108.479 118.881 101C114.459 80.6633 124.641 59.0987 129.117 59.59C130.291 59.7265 131.028 61.7465 132.53 65.8137C136.051 75.4496 134.55 79.5988 136.924 87.242C139.6 95.8678 142.903 95.1035 143.558 101Z" fill="#22130C"/>
<path d="M163.376 141.262C128.544 141.044 93.7125 140.853 58.9082 140.634C59.1812 133.291 60.6825 124.229 66.8791 120.571C74.3586 116.149 82.7935 123.055 90.4641 118.906C94.5587 116.667 98.9536 111.017 99.6088 95.6486C100.155 95.6486 100.673 95.5667 101.192 95.5394C104.386 95.3211 107.552 95.1027 110.746 94.8843C113.913 95.1027 117.106 95.3211 120.273 95.5394C120.819 95.594 121.31 95.6213 121.856 95.6486C122.375 105.83 124.477 116.04 131.001 118.906C138.126 122.045 145.332 114.074 152.784 117.05C157.398 118.906 161.902 124.857 163.403 141.262H163.376Z" fill="#EA9950"/>
<path d="M120.055 103.647C120.055 109.925 115.878 115.03 110.691 115.03C105.505 115.03 101.328 109.925 101.328 103.647C101.328 97.3683 105.505 92.2638 110.691 92.2638C115.878 92.2638 120.055 97.3683 120.055 103.647Z" fill="#22130C"/>
<path d="M111.483 52.3566C109.436 52.3566 107.689 52.4386 105.996 52.6296C96.7972 53.7215 89.8636 61.5012 89.8636 70.7549V89.5353C90.355 91.9101 92.2658 99.9082 99.6908 105.613C103.976 108.916 108.371 110.09 110.883 110.581C111.046 110.581 111.21 110.581 111.374 110.581C111.538 110.581 111.702 110.581 111.865 110.581C114.404 110.117 118.772 108.943 123.057 105.613C130.482 99.9082 132.393 91.9101 132.885 89.5353V70.7549C132.885 61.5012 125.951 53.7215 116.752 52.6296C115.087 52.4386 113.312 52.3293 111.456 52.3566H111.483Z" fill="#EA9950"/>
<path d="M93.7944 80.0071C93.7944 83.8014 91.5287 86.8586 88.7443 86.8586C85.96 86.8586 83.6943 83.8014 83.6943 80.0071C83.6943 76.2128 85.96 73.1555 88.7443 73.1555C91.5287 73.1555 93.7944 76.2128 93.7944 80.0071Z" fill="#EA9950"/>
<path d="M139.19 80.0073C139.19 83.8016 136.925 86.8588 134.14 86.8588C131.356 86.8588 129.09 83.8016 129.09 80.0073C129.09 76.213 131.356 73.1557 134.14 73.1557C136.925 73.1557 139.19 76.213 139.19 80.0073Z" fill="#EA9950"/>
<path d="M109.245 95.8681C109.982 95.4587 110.719 95.3495 111.428 95.3495C112.166 95.3495 112.903 95.4587 113.612 95.8681C112.875 96.2776 112.138 96.3868 111.428 96.3868C110.691 96.3868 109.954 96.2776 109.245 95.8681Z" fill="#22130C"/>
<path d="M106.488 124.393C107.443 125.594 108.999 126.194 110.5 125.867C112.602 125.43 113.421 123.492 113.476 123.355L106.488 124.393Z" fill="#22130C"/>
<path d="M113.913 128.051C114.431 128.297 115.223 128.624 116.206 128.952C119.536 129.989 122.348 129.771 124.286 129.607C131.356 129.006 137.88 128.024 140.091 127.669C135.014 127.832 129.936 128.024 124.886 128.187L113.913 128.051Z" fill="#22130C"/>
<path d="M107.471 128.051C106.952 128.297 106.16 128.624 105.178 128.952C101.847 129.989 99.0356 129.771 97.0975 129.607C90.0275 129.006 83.5033 128.024 81.2922 127.669C86.3696 127.832 91.4469 128.024 96.497 128.187L107.471 128.051Z" fill="#22130C"/>
<path d="M111.538 106.05C111.538 106.05 111.347 106.05 111.265 106.05C110.009 106.022 108.781 105.722 107.634 105.203C107.471 105.121 107.389 104.93 107.47 104.739C107.552 104.576 107.743 104.494 107.935 104.576C108.999 105.067 110.146 105.34 111.319 105.367C112.602 105.422 113.858 105.149 115.032 104.657C115.223 104.576 115.414 104.657 115.469 104.848C115.523 105.04 115.469 105.231 115.278 105.285C114.104 105.777 112.821 106.05 111.565 106.05H111.538Z" fill="#22130C"/>
<path d="M111.046 102.119C107.334 102.119 104.55 100.617 103.157 99.6893C102.994 99.5801 102.966 99.3617 103.076 99.2252C103.185 99.0614 103.403 99.0341 103.54 99.1433C104.959 100.099 107.907 101.655 111.811 101.436C114.923 101.245 117.298 100.017 118.717 99.0068C118.881 98.8977 119.072 98.9249 119.181 99.0887C119.29 99.2525 119.263 99.4436 119.099 99.5528C117.598 100.617 115.114 101.9 111.838 102.091C111.565 102.091 111.319 102.091 111.046 102.091V102.119Z" fill="#22130C"/>
<path d="M94.2858 86.5329C95.405 87.461 97.7253 89.0988 100.974 89.4264C102.148 89.5356 105.341 89.8358 106.215 88.2526C107.088 86.6694 105.314 83.7213 103.103 82.6567C100.592 81.4556 96.7153 82.8751 94.2585 86.5329H94.2858Z" fill="#D86C12"/>
<path d="M101.41 89.7547C97.5888 89.7547 94.6134 87.7348 93.4396 86.7794C93.3031 86.6702 93.2758 86.4518 93.385 86.288C93.4942 86.1515 93.7126 86.1242 93.8763 86.2334C95.132 87.2434 98.4896 89.5364 102.721 88.9631C103.84 88.8266 104.959 88.4718 106.024 87.9531C106.188 87.8712 106.406 87.9531 106.488 88.1169C106.57 88.2807 106.488 88.4991 106.324 88.581C105.205 89.1269 104.004 89.5091 102.803 89.6456C102.339 89.7002 101.874 89.7274 101.41 89.7274V89.7547Z" fill="#22130C"/>
<path d="M130.564 79.7625C128.653 79.4622 125.978 79.2165 122.839 79.4895C120.137 79.7352 117.898 80.3084 116.233 80.8544C116.233 80.4995 116.233 80.0901 116.315 79.626C116.506 78.5068 117.025 77.6606 117.407 77.142C119.563 76.9782 121.338 76.9236 122.675 76.9236C125.869 76.9236 126.77 77.1966 127.343 77.4149C128.981 78.0155 130.018 79.0528 130.592 79.7625H130.564Z" fill="#22130C"/>
<path d="M116.178 77.1962C116.015 77.5511 115.796 78.0424 115.66 78.6976C115.414 79.8167 115.523 80.9086 115.633 80.9086C115.769 80.9086 116.042 79.5984 116.097 79.1889C116.206 78.6157 116.288 78.097 116.588 77.4146C116.67 77.2508 116.724 77.1143 116.779 77.0052L116.178 77.1689V77.1962Z" fill="#22130C"/>
<path d="M93.467 79.8171C95.3778 79.5169 98.0529 79.2712 101.192 79.5442C103.895 79.7898 106.133 80.3631 107.798 80.909C107.798 80.5541 107.798 80.1447 107.716 79.6806C107.525 78.5615 107.006 77.7153 106.624 77.1966C104.468 77.0328 102.694 76.9782 101.356 76.9782C98.1621 76.9782 97.2613 77.2512 96.688 77.4696C95.0502 78.0701 94.0129 79.1074 93.4396 79.8171H93.467Z" fill="#22130C"/>
<path d="M107.825 77.2234C107.989 77.5783 108.208 78.0696 108.344 78.7248C108.59 79.844 108.48 80.9358 108.371 80.9358C108.235 80.9358 107.962 79.6256 107.907 79.2161C107.798 78.6429 107.716 78.1242 107.416 77.4418C107.334 77.278 107.279 77.1415 107.225 77.0596L107.825 77.2234Z" fill="#22130C"/>
<path d="M117.161 100.344C117.107 101.108 113.776 101.49 111.565 101.49C109.081 101.49 105.56 100.999 105.532 100.234C105.505 99.4973 108.617 98.46 111.565 98.5419C114.295 98.5965 117.216 99.6338 117.161 100.344Z" fill="#D86C12"/>
<path d="M133.376 61.9643C134.14 66.5502 134.222 70.4264 134.14 73.1561C133.43 78.3153 132.393 79.6801 131.492 79.8166C128.544 80.2534 126.743 67.8059 120.519 66.7686C116.397 66.0862 115.332 71.1088 108.726 72.8285C99.8819 75.0942 91.4469 68.3791 89.8637 70.7813C89.1266 71.9004 90.7372 73.7567 90.1912 74.1661C89.1539 74.985 80.5825 69.8259 79.982 63.4111C79.0266 53.0928 99.0356 45.4496 100.018 45.0947C106.215 42.8018 111.183 42.7199 113.612 42.8291C118.035 43.0474 123.713 43.2931 127.916 47.3058C131.438 50.6906 132.202 55.0854 133.376 62.0189V61.9643Z" fill="#22130C"/>
<path d="M88.7445 178.878C97.7298 178.878 105.014 171.594 105.014 162.609C105.014 153.623 97.7298 146.34 88.7445 146.34C79.7592 146.34 72.4752 153.623 72.4752 162.609C72.4752 171.594 79.7592 178.878 88.7445 178.878Z" fill="#EA9950"/>
<path d="M130.564 178.878C139.549 178.878 146.833 171.594 146.833 162.609C146.833 153.623 139.549 146.34 130.564 146.34C121.579 146.34 114.295 153.623 114.295 162.609C114.295 171.594 121.579 178.878 130.564 178.878Z" fill="#EA9950"/>
<path d="M128.298 86.5315C127.179 87.4596 124.859 89.0974 121.61 89.4249C120.437 89.5341 117.243 89.8344 116.369 88.2512C115.496 86.6679 117.27 83.7199 119.481 82.6553C121.993 81.4542 125.869 82.8736 128.326 86.5315H128.298Z" fill="#D86C12"/>
<path d="M121.201 89.7526C120.764 89.7526 120.3 89.7253 119.836 89.6707C118.635 89.507 117.461 89.1521 116.315 88.6062C116.151 88.5243 116.069 88.3059 116.151 88.1421C116.233 87.9783 116.424 87.8964 116.615 87.9783C117.68 88.497 118.772 88.8518 119.918 88.9883C124.122 89.5342 127.507 87.2686 128.763 86.2586C128.899 86.1494 129.117 86.1767 129.254 86.3132C129.363 86.4497 129.336 86.668 129.199 86.8045C127.998 87.7599 125.023 89.7799 121.201 89.7799V89.7526Z" fill="#22130C"/>
<path d="M146.588 208.167H74.659C74.9593 197.385 75.2596 186.575 75.5598 175.793C74.1404 172.899 72.6936 169.242 71.7928 164.847C69.609 154.365 71.6563 145.548 73.1849 140.743C80.4734 132.527 87.7345 124.311 95.0229 116.094C96.0875 123.956 102.284 130.043 109.764 130.835C118.089 131.708 126.169 125.785 127.916 117.022C133.103 124.72 138.317 132.391 143.503 140.088C146.26 147.186 149.973 160.097 145.769 174.21C145.087 176.475 144.268 178.577 143.367 180.515C144.431 189.742 145.496 198.941 146.588 208.167Z" fill="#410FA3"/>
<path d="M188.954 188.104C184.968 191.981 181.01 195.857 177.025 199.733C172.521 192.062 168.017 184.337 163.512 176.64C162.311 174.565 161.083 172.436 159.827 170.361C155.296 162.609 150.765 154.857 146.233 147.104C146.288 146.012 146.67 142.245 149.727 139.27C152.894 136.213 157.616 135.203 162.093 136.567C165.369 141.044 168.644 145.93 171.866 151.308C174.186 155.184 176.288 159.006 178.199 162.773C182.812 171.781 186.306 180.325 188.981 188.132L188.954 188.104Z" fill="#EA9950"/>
<path d="M178.171 162.772C173.285 167.386 168.371 171.999 163.512 176.639C162.311 174.565 161.083 172.436 159.827 170.361C165.942 167.822 172.056 165.338 178.171 162.772Z" fill="#22130C"/>
<path d="M181.31 160.862C173.694 165.502 166.051 170.143 158.435 174.756C152.539 164.492 146.67 154.229 140.773 143.965C136.597 134.984 132.393 126.004 128.217 117.023C130.155 116.804 132.966 116.531 136.379 116.286C145.742 115.603 150.409 115.249 152.621 115.904C158.025 117.514 161.137 123.165 167.388 134.466C170.719 140.471 171.401 143.064 176.588 152.591C178.526 156.112 180.191 158.978 181.31 160.862Z" fill="#410FA3"/>
<path d="M37.1794 187.831C41.4106 191.434 45.6144 195.037 49.8455 198.64C53.8582 190.67 57.8436 182.699 61.8291 174.728C62.8937 172.572 63.9856 170.388 65.0775 168.231C69.0902 160.206 73.1302 152.153 77.143 144.155C77.0065 143.091 76.406 139.324 73.1576 136.567C69.8 133.728 65.0229 133.018 60.6553 134.683C57.6799 139.351 54.7317 144.456 51.8655 150.024C49.8182 154.064 47.962 157.995 46.2968 161.871C42.2841 171.152 39.3359 179.914 37.1794 187.858V187.831Z" fill="#EA9950"/>
<path d="M46.2968 161.845C51.456 166.13 56.6698 170.416 61.829 174.729C62.8936 172.572 63.9855 170.389 65.0774 168.232C58.799 166.103 52.5479 164.001 46.2695 161.845H46.2968Z" fill="#22130C"/>
<path d="M43.0484 160.152C50.9647 164.274 58.8809 168.423 66.7972 172.545C72.011 161.927 77.1976 151.308 82.4114 140.662C87.3795 134.384 92.3477 128.078 97.3431 121.8C95.2412 120.162 85.4687 112.956 74.3313 115.603C63.3031 118.224 57.4069 128.952 55.2504 132.883C52.6844 137.55 52.6298 139.952 47.2522 151.581C45.5598 155.239 44.0857 158.187 43.0757 160.152H43.0484Z" fill="#410FA3"/>
<path d="M97.2064 120.053C95.4048 121.445 93.7669 120.954 87.625 120.817C77.3884 120.572 76.3511 121.855 74.8225 120.517C71.6014 117.733 74.8225 110.963 77.7979 96.5231C81.019 80.8818 78.8898 80.6362 81.565 72.6927C86.615 57.7066 98.1891 46.5967 100.7 48.0162C104.85 50.3091 85.1682 86.9145 95.4048 100.154C96.1691 101.136 99.281 104.849 99.8815 110.226C99.9907 111.291 100.646 117.351 97.1791 120.053H97.2064Z" fill="#22130C"/>
<path d="M104.441 206.994C104.659 204.892 104.877 202.79 105.068 200.688C89.0994 195.583 70.8919 191.298 50.6099 189.005C46.0239 188.486 41.5471 188.104 37.1522 187.831C36.2514 188.868 33.7127 192.035 33.2487 196.894C32.8119 201.507 34.5316 204.946 35.2141 206.175C40.0184 208.058 44.0039 208.85 46.5426 209.232C65.1321 212.071 75.1776 203.309 95.5688 205.465C99.4997 205.874 102.612 206.584 104.413 207.021L104.441 206.994Z" fill="#EA9950"/>
<path d="M124.04 208.714L92.0475 208.168C102.502 206.257 112.957 204.346 123.412 202.408C140.883 199.569 159.063 195.747 177.871 190.725C181.583 189.742 185.214 188.732 188.817 187.668C189.663 188.295 194.495 191.98 195.205 198.586C195.696 203.118 193.949 206.584 193.239 207.867C188.162 208.795 184.095 209.314 181.611 209.614C164.386 211.607 150.164 210.652 133.376 209.451C129.227 209.15 125.896 208.877 124.067 208.686L124.04 208.714Z" fill="#EA9950"/>
<path d="M110.118 209.368C109.9 209.368 109.682 209.259 109.545 209.041L86.7244 172.872C86.5333 172.544 86.6152 172.135 86.9428 171.944C87.2703 171.753 87.6798 171.835 87.8982 172.162L110.719 208.331C110.91 208.658 110.828 209.068 110.5 209.259C110.391 209.341 110.255 209.368 110.146 209.368H110.118Z" fill="white"/>
<path d="M119.918 208.686C114.623 209.86 105.887 210.979 95.9238 208.195C92.6208 207.267 89.7273 206.065 87.2978 204.837C87.5708 201.834 87.871 198.859 88.144 195.856C95.3778 194.901 102.639 193.973 109.873 193.017C111.047 193.563 119.045 197.494 120.028 204.946C120.164 205.984 120.191 207.239 119.918 208.686Z" fill="#EA9950"/>
<path d="M240 212.507V214.363C240 216.793 238.034 218.704 235.66 218.704H25.4689C23.094 218.704 21.1286 216.765 21.1286 214.363V212.507C21.1286 210.078 23.094 208.167 25.4689 208.167H235.66C238.034 208.167 240 210.105 240 212.507Z" fill="white"/>
<path d="M234.759 220.26H24.5681C21.9748 220.26 19.8729 218.158 19.8729 215.565V213.709C19.8729 211.115 21.9748 209.013 24.5681 209.013H234.759C237.352 209.013 239.454 211.115 239.454 213.709V215.565C239.454 218.158 237.352 220.26 234.759 220.26ZM24.5681 209.723C22.357 209.723 20.5554 211.525 20.5554 213.736V215.592C20.5554 217.803 22.357 219.605 24.5681 219.605H234.759C236.97 219.605 238.771 217.803 238.771 215.592V213.736C238.771 211.525 236.97 209.723 234.759 209.723H24.5681Z" fill="#22130C"/>
<path d="M97.78 215.018C90.7373 212.725 83.7218 210.46 76.679 208.167H135.178C122.703 210.46 110.228 212.725 97.78 215.018Z" fill="#22130C"/>
<path d="M120.382 208.195C120.218 208.195 120.082 208.085 120.055 207.922L119.154 202.735C119.126 202.544 119.236 202.38 119.427 202.353C119.645 202.326 119.782 202.435 119.809 202.626L120.71 207.812C120.737 208.003 120.628 208.167 120.437 208.195C120.437 208.195 120.409 208.195 120.382 208.195Z" fill="#22130C"/>
<path d="M113.449 201.261C113.449 201.261 113.339 201.261 113.312 201.234L109.791 199.569C109.627 199.487 109.545 199.296 109.627 199.104C109.709 198.941 109.927 198.859 110.091 198.941L113.612 200.606C113.776 200.688 113.858 200.879 113.776 201.07C113.722 201.179 113.585 201.261 113.476 201.261H113.449Z" fill="#22130C"/>
<path d="M118.253 208.522C118.253 208.522 118.035 208.468 117.98 208.359L113.449 201.671C113.339 201.507 113.394 201.316 113.53 201.207C113.694 201.097 113.885 201.152 113.994 201.289L118.526 207.976C118.635 208.14 118.58 208.331 118.444 208.44C118.389 208.468 118.308 208.495 118.253 208.495V208.522Z" fill="#22130C"/>
<path d="M173.776 192.172C173.64 192.172 173.503 192.09 173.448 191.926C173.394 191.762 173.476 191.544 173.667 191.489L177.188 190.288C177.352 190.234 177.57 190.316 177.625 190.507C177.68 190.67 177.598 190.889 177.407 190.943L173.885 192.145C173.885 192.145 173.803 192.145 173.776 192.145V192.172Z" fill="#22130C"/>
<path d="M54.4588 189.824L50.6099 189.36C50.4188 189.36 50.2823 189.169 50.3096 188.978C50.3096 188.787 50.5007 188.65 50.6918 188.677L54.4861 189.141C54.6772 189.141 54.8137 189.332 54.7864 189.524C54.7864 189.687 54.6226 189.824 54.4588 189.824Z" fill="#22130C"/>
<path d="M196.952 103.292C199.436 114.102 196.133 128.651 188.135 131.408C178.69 134.657 164.167 120.899 160.428 106.213C157.916 96.3044 159.281 81.837 166.733 78.5067C175.851 74.4395 193.294 87.351 196.952 103.292Z" fill="#5BA890"/>
<path d="M223.539 116.095C223.539 134.138 215.596 148.769 205.769 148.769C195.942 148.769 187.998 134.138 187.998 116.095C187.998 98.0513 195.942 83.4201 205.769 83.4201C215.596 83.4201 223.539 98.0513 223.539 116.095Z" fill="#5BA890"/>
<path d="M189.145 154.065C185.869 160.043 169.354 156.358 167.115 155.839C165.396 155.43 146.479 151.007 146.233 142.272C146.042 135.475 157.206 128.078 167.115 128.706C181.638 129.607 192.611 147.732 189.145 154.065Z" fill="#5BA890"/>
<path d="M198.835 172.872C198.671 172.872 198.535 172.763 198.508 172.599C195.641 159.934 192.229 147.24 188.326 134.875C182.266 115.74 174.923 96.8227 166.433 78.6155C166.351 78.4517 166.433 78.2334 166.597 78.1515C166.761 78.0696 166.979 78.1515 167.061 78.3152C175.55 96.5224 182.948 115.494 188.981 134.656C192.884 147.022 196.324 159.715 199.19 172.436C199.217 172.627 199.108 172.79 198.944 172.845C198.944 172.845 198.89 172.845 198.862 172.845L198.835 172.872Z" fill="#22130C"/>
<path d="M204.131 176.121C203.913 176.121 203.776 175.957 203.803 175.766C204.568 161.544 205.196 147.104 205.687 132.882C206.26 116.504 206.642 99.9073 206.861 83.529C206.861 83.338 207.052 83.2015 207.216 83.2015C207.407 83.2015 207.543 83.3652 207.543 83.5563C207.325 99.9346 206.915 116.558 206.369 132.937C205.878 147.159 205.25 161.599 204.486 175.82C204.486 176.012 204.322 176.148 204.158 176.148L204.131 176.121Z" fill="#22130C"/>
<path d="M194.304 174.621C194.085 174.621 193.949 174.457 193.976 174.266C194.249 170.089 193.976 161.928 188.872 154.257C182.566 144.785 173.012 141.973 168.917 140.8C162.311 138.889 155.186 138.671 148.307 140.226C148.144 140.281 147.953 140.145 147.898 139.981C147.871 139.79 147.98 139.626 148.144 139.571C155.132 137.988 162.393 138.179 169.108 140.145C173.257 141.346 183.003 144.212 189.445 153.875C194.659 161.709 194.959 170.035 194.659 174.293C194.659 174.484 194.495 174.621 194.331 174.621H194.304Z" fill="#22130C"/>
<path d="M189.854 130.917C189.691 130.917 189.554 130.808 189.527 130.672C188.053 125.103 187.452 119.343 187.725 113.611C188.08 106.65 189.718 99.8532 192.611 93.4384C192.693 93.2746 192.884 93.1927 193.075 93.2746C193.239 93.3565 193.321 93.5476 193.239 93.7114C190.4 100.044 188.762 106.732 188.435 113.638C188.162 119.316 188.762 124.994 190.209 130.508C190.264 130.699 190.155 130.89 189.964 130.917C189.936 130.917 189.909 130.917 189.882 130.917H189.854Z" fill="#22130C"/>
<path d="M181.31 167.85H218.353V191.053C218.353 200.498 210.682 208.168 201.237 208.168H198.399C188.954 208.168 181.283 200.498 181.283 191.053V167.85H181.31Z" fill="#22130C"/>
<path d="M214.122 0H142.93C139.681 0 137.034 2.64783 137.034 5.89618V46.7326C137.034 49.981 139.681 52.6288 142.93 52.6288C143.448 57.5969 143.831 62.5376 144.24 67.5057C144.458 68.2427 145.141 68.7341 145.878 68.7068C146.588 68.7068 147.243 68.2154 147.434 67.5057C149.945 62.5376 152.457 57.5969 154.968 52.6288H214.094C217.343 52.6288 219.991 49.981 219.991 46.7326V5.89618C219.991 2.64783 217.343 0 214.094 0H214.122Z" fill="#D6185D"/>
<path d="M158.025 27.2429L161.82 28.444C161.246 30.5459 160.264 32.1291 158.926 33.1664C157.561 34.2037 155.869 34.695 153.794 34.695C151.228 34.695 149.099 33.8215 147.461 32.0472C145.796 30.3002 144.977 27.8981 144.977 24.8408C144.977 21.6197 145.796 19.1084 147.461 17.3341C149.126 15.5598 151.31 14.659 154.04 14.659C156.415 14.659 158.325 15.3687 159.8 16.7609C160.673 17.5798 161.328 18.7808 161.792 20.3368L157.916 21.2649C157.698 20.2549 157.206 19.4633 156.497 18.89C155.76 18.3168 154.886 18.0165 153.849 18.0165C152.402 18.0165 151.255 18.5352 150.355 19.5725C149.454 20.6098 149.017 22.2749 149.017 24.5678C149.017 27.0245 149.454 28.7716 150.327 29.8089C151.201 30.8462 152.347 31.3648 153.767 31.3648C154.804 31.3648 155.705 31.0372 156.442 30.3821C157.179 29.727 157.725 28.6897 158.053 27.2702L158.025 27.2429Z" fill="white"/>
<path d="M165.041 34.3668V15.0131H168.944V34.3668H165.041Z" fill="white"/>
<path d="M190.127 34.3668H185.869L184.176 29.9719H176.424L174.841 34.3668H170.691L178.225 15.0131H182.347L190.1 34.3668H190.127ZM182.921 26.6963L180.245 19.5171L177.625 26.6963H182.921Z" fill="white"/>
<path d="M191.41 24.8127C191.41 22.8473 191.71 21.1822 192.283 19.8446C192.72 18.8619 193.321 17.9611 194.085 17.1968C194.849 16.4052 195.668 15.8319 196.596 15.4498C197.798 14.9311 199.19 14.6855 200.773 14.6855C203.612 14.6855 205.905 15.559 207.625 17.3333C209.344 19.1076 210.191 21.5643 210.191 24.7035C210.191 27.8426 209.344 30.2721 207.652 32.0464C205.959 33.8207 203.694 34.6942 200.828 34.6942C197.961 34.6942 195.668 33.8207 193.949 32.0464C192.256 30.2994 191.41 27.8699 191.41 24.7854V24.8127ZM195.45 24.6762C195.45 26.8599 195.969 28.5251 196.979 29.6715C197.989 30.7907 199.272 31.364 200.828 31.364C202.384 31.364 203.667 30.7907 204.677 29.6715C205.687 28.5524 206.178 26.86 206.178 24.6216C206.178 22.3832 205.687 20.7454 204.704 19.6535C203.721 18.5616 202.438 18.0157 200.828 18.0157C199.217 18.0157 197.907 18.5616 196.924 19.6808C195.941 20.7727 195.45 22.4651 195.45 24.6762Z" fill="white"/>
<path d="M5.18651 57.1879H68.1072C71.0008 57.1879 73.3211 59.5355 73.3211 62.4017V98.5157C73.3211 101.409 70.9735 103.729 68.1072 103.729C67.6432 108.124 67.2883 112.492 66.9607 116.887C66.7697 117.542 66.1691 117.951 65.514 117.951C64.8861 117.951 64.3129 117.514 64.1218 116.887C61.9107 112.492 59.6723 108.124 57.4612 103.729H5.21383C2.3203 103.729 0 101.382 0 98.5157V62.4017C0 59.5082 2.34759 57.1879 5.21383 57.1879H5.18651Z" fill="#F76400"/>
<path d="M8.32568 86.8589V74.466H10.837V79.3522H15.7506V74.466H18.262V86.8589H15.7506V81.4541H10.837V86.8589H8.32568Z" fill="white"/>
<path d="M20.8281 86.8589V74.466H30.0274V76.5679H23.3395V79.3249H29.5633V81.3995H23.3395V84.7843H30.273V86.8589H20.8554H20.8281Z" fill="white"/>
<path d="M32.4294 86.8588V74.5751H34.9408V84.7842H41.1646V86.8588H32.4567H32.4294Z" fill="white"/>
<path d="M43.021 86.8588V74.5751H45.5324V84.7842H51.7562V86.8588H43.0483H43.021Z" fill="white"/>
<path d="M53.0117 80.7447C53.0117 79.489 53.2028 78.4244 53.5849 77.5782C53.8579 76.9504 54.2401 76.3771 54.7314 75.8858C55.2228 75.3944 55.7414 75.0123 56.342 74.7666C57.1063 74.4391 58.0071 74.2753 59.0171 74.2753C60.846 74.2753 62.2928 74.8485 63.3847 75.9677C64.4766 77.0869 65.0226 78.6701 65.0226 80.6901C65.0226 82.7101 64.4766 84.266 63.3847 85.3852C62.2928 86.5044 60.846 87.0776 59.0171 87.0776C57.1882 87.0776 55.7141 86.5044 54.6222 85.3852C53.5303 84.266 52.9844 82.7101 52.9844 80.7447H53.0117ZM55.5776 80.6628C55.5776 82.0549 55.9052 83.1195 56.5603 83.8565C57.2155 84.5936 58.0344 84.9484 59.0171 84.9484C59.9998 84.9484 60.8461 84.5936 61.4739 83.8838C62.1017 83.1741 62.4293 82.0822 62.4293 80.6628C62.4293 79.2433 62.129 78.1788 61.5012 77.4963C60.8733 76.7866 60.0544 76.459 59.0171 76.459C57.9798 76.459 57.1609 76.8139 56.5331 77.5236C55.9052 78.2333 55.5776 79.2979 55.5776 80.7174V80.6628Z" fill="white"/>
</svg>
