<svg width="215" height="257" viewBox="0 0 215 257" fill="none" xmlns="http://www.w3.org/2000/svg">
<path d="M69.5991 201.338L68.9456 206.82C67.457 219.382 65.9322 231.981 64.4073 244.543C63.9716 248.064 63.5722 251.514 63.1366 255.035C61.8658 255.035 60.5951 255.035 59.3243 255.035V201.375H69.5991V201.338Z" fill="#342016"/>
<path d="M180.914 256.633H184.544V201.338H174.27C176.484 219.782 178.699 238.189 180.914 256.633Z" fill="#342016"/>
<path d="M119.52 256.633H123.151V201.338H112.876C115.091 219.782 117.305 238.189 119.52 256.633Z" fill="#342016"/>
<path d="M43.7853 174.108H201.536V175.815C201.536 193.35 187.304 207.546 169.804 207.546H75.5532C58.0173 207.546 43.8216 193.314 43.8216 175.815V174.108H43.7853Z" fill="#F76400"/>
<path d="M175.395 180.534H109.064C128.742 151.853 148.42 123.134 168.098 94.4525C183.02 93.3996 197.288 99.3901 204.622 109.737C215.26 124.768 204.803 140.017 204.368 140.67L175.395 180.571V180.534Z" fill="#F76400"/>
<path d="M129.867 179.118H39.9731C36.2699 156.427 47.4159 133.772 68.0378 122.081C88.0425 110.717 113.457 111.698 132.663 124.55L129.904 179.082L129.867 179.118Z" fill="#F76400"/>
<path d="M195.11 180.535H61.9021C58.3441 180.535 55.4758 177.667 55.4758 174.109C55.4758 170.551 58.3441 167.682 61.9021 167.682H195.11C198.668 167.682 201.536 170.551 201.536 174.109C201.536 177.667 198.668 180.535 195.11 180.535Z" fill="#F76400"/>
<path d="M122.751 97.7925C121.19 99.9346 119.447 102.222 117.56 104.691C117.342 104.945 117.124 105.235 116.906 105.526C112.803 110.754 107.358 117.58 100.496 125.24L88.9866 116.272C95.2312 105.453 101.512 94.6702 107.757 83.851C116.579 77.6789 125.402 71.4706 134.224 65.2622C134.587 65.7705 135.095 66.6418 135.531 67.731C137.455 72.7412 136.039 79.7121 122.788 97.7563L122.751 97.7925Z" fill="#EA9950"/>
<path d="M122.751 97.7933C121.19 99.9354 119.447 102.223 117.56 104.692C117.342 104.946 117.124 105.236 116.906 105.527C111.896 101.787 106.922 98.0112 101.875 94.2716C106.885 95.1793 111.932 96.0869 116.906 96.9946C118.867 97.2487 120.827 97.5392 122.751 97.7933Z" fill="#342016"/>
<path d="M126.128 106.398C113.348 121.429 99.8784 127.201 94.2872 123.244C88.7323 119.323 91.4553 106.216 91.9999 103.82C98.7891 90.786 105.542 77.6796 112.295 64.5367C112.731 63.6654 113.566 62.0315 114.038 61.1602C121.589 55.1697 130.956 54.7703 136.257 59.236C139.779 62.1768 140.65 66.4972 140.904 68.4578C135.967 81.0923 131.065 93.7632 126.128 106.398Z" fill="#5BA890"/>
<path d="M110.698 123.026C110.806 125.023 111.097 129.089 111.678 137.222C112.585 150.002 112.731 150.909 113.021 152.108C115.163 160.64 122.388 170.188 129.177 171.205C139.016 172.729 153.103 157.082 159.384 130.542C160.11 124.297 160.727 118.887 161.454 112.643C162.797 110.428 164.14 108.141 165.411 105.708C169.913 97.14 173.108 88.6444 175.323 80.5118C178.881 67.5141 170.893 54.0446 157.75 51.0311C153.503 50.0509 148.855 49.3248 143.809 48.998C142.139 48.8891 140.469 48.8527 138.871 48.8164C134.478 48.8164 129.867 49.1431 128.596 49.361C121.226 50.6317 116.579 65.3358 115.091 70.3097C108.846 90.7138 109.935 109.629 110.698 123.026Z" fill="#EA9950"/>
<path d="M155.209 158.061C155.427 162.055 154.374 165.649 152.486 168.517C144.971 169.788 136.366 170.55 126.818 170.296C126.346 170.296 125.874 170.296 125.402 170.296C109.826 169.824 96.2478 166.883 85.6101 163.652C83.7222 163.071 71.1239 159.441 70.543 154.212C70.0711 149.892 78.131 146.661 82.3426 144.991C90.7656 141.723 104.453 138.347 125.474 140.162C130.085 140.561 134.987 141.179 140.287 142.123C145.261 147.46 150.235 152.76 155.173 158.061H155.209Z" fill="#EA9950"/>
<path d="M150.743 163.107C149.618 167.028 147.076 170.187 143.664 172.474C138.254 176.032 130.666 177.194 123.114 174.979C118.068 173.491 113.784 170.768 110.77 167.319C106.413 162.381 104.489 156.064 106.268 150.073C108.084 143.974 113.166 139.653 119.665 137.911C124.022 136.785 128.996 136.785 133.934 138.237C146.205 141.832 153.757 153.014 150.78 163.143L150.743 163.107Z" fill="#EA9950"/>
<path d="M161.998 54.7699C155.245 56.4036 148.529 58.0374 141.739 59.5985C141.921 56.803 141.848 52.8819 140.759 48.3799C140.759 48.3073 140.759 48.1621 140.723 48.0895C139.525 43.1156 137.528 39.1582 135.749 36.3989C135.277 35.6365 134.841 35.0193 134.406 34.4384C139.525 32.1511 144.608 29.8638 149.763 27.5402L161.998 54.7699Z" fill="#EA9950"/>
<path d="M158.077 146.48C154.628 148.622 145.08 153.886 132.336 152.833C113.021 151.272 102.238 136.496 100.677 134.245C100.968 126.838 102.71 89.2614 112.368 66.4611C116.507 56.6947 120.936 52.1927 126.019 50.0506C131.501 47.7633 136.548 48.3442 138.908 48.7798C138.254 51.9022 139.016 53.3907 139.561 54.1169C142.175 57.457 150.526 56.5495 160.365 51.1398C163.342 51.5755 167.444 52.701 170.857 55.787C177.428 61.7412 177.9 71.907 176.121 86.2842C174.451 99.7175 170.204 120.703 158.114 146.444L158.077 146.48Z" fill="#5BA890"/>
<path d="M176.521 97.5769C176.012 100.191 175.359 102.987 174.669 106.036C174.597 106.363 174.524 106.726 174.415 107.089C172.854 113.552 170.748 122.011 167.735 131.886L153.539 128.546C154.701 116.093 155.863 103.713 157.024 91.2596C162.434 81.9653 167.88 72.6708 173.29 63.3038C173.834 63.6306 174.669 64.1752 175.504 65.0102C179.353 68.7498 180.986 75.6843 176.484 97.6132L176.521 97.5769Z" fill="#EA9950"/>
<path d="M172.6 130.541C165.738 129.779 158.912 129.016 152.05 128.254C151.034 111.299 150.017 94.3439 149.001 77.3889C152.631 69.1837 156.262 60.9423 159.892 52.7371C161.817 52.4103 164.83 52.1561 168.243 53.1001C176.085 55.2421 179.897 61.8136 180.732 63.3384C181.93 71.943 182.656 83.5247 181.059 96.9943C179.425 110.9 175.867 122.3 172.6 130.577V130.541Z" fill="#5BA890"/>
<path d="M105.833 128.036C101.512 133.009 97.1917 137.983 92.835 142.957C97.8452 142.159 102.856 141.36 107.866 140.525C113.965 139.762 118.83 140.017 122.098 140.38C134.986 141.796 141.231 146.878 150.852 144.7C154.265 143.938 156.843 142.631 158.477 141.65C159.203 140.997 161.054 139.181 161.599 136.277C162.398 131.92 159.529 128.689 159.057 128.181C154.011 127.382 149.908 127.201 147.331 127.164C132.99 127.019 126.128 130.976 112.912 129.379C109.754 128.979 107.249 128.435 105.796 128.036H105.833Z" fill="#EA9950"/>
<path d="M140.796 48.417C140.796 48.417 140.796 48.1991 140.759 48.1265C139.561 43.1525 137.564 39.1952 135.785 36.4359C136.947 35.0199 138.581 34.1486 140.324 34.2938C143.482 34.5117 145.806 37.9245 145.552 41.8456C145.298 45.1131 143.301 47.7635 140.832 48.417H140.796Z" fill="#342016"/>
<path d="M152.087 28.4849C152.014 29.5378 151.796 30.8448 151.397 32.3333C151.397 32.3333 150.671 34.7659 149.327 36.9443C146.423 41.5552 135.785 48.9253 129.649 45.2583C127.253 43.8424 125.983 41.0469 123.514 35.4921C123.042 34.4392 122.679 33.5678 122.533 32.3697C122.352 31.099 122.606 30.5907 122.316 29.2474C122.098 28.4124 121.916 28.2307 121.517 26.8874C121.299 26.2702 121.117 25.5441 120.827 24.4549C120.754 24.2008 120.718 23.983 120.609 23.6926L120.537 23.2931C120.464 22.9301 120.355 22.567 120.282 22.204C120.246 21.8772 120.137 21.5505 120.101 21.2963C119.302 18.1014 118.758 15.1968 118.395 12.8369C119.956 11.1305 123.986 7.13682 130.593 5.32151C137.855 3.39728 143.845 5.17634 145.987 5.93877C147.839 8.77065 150.271 13.2726 151.469 19.2994C152.196 22.8211 152.268 25.9798 152.159 28.4487L152.087 28.4849Z" fill="#EA9950"/>
<path d="M130.775 27.8316C130.485 27.8316 130.303 27.5776 130.339 27.3234C130.376 26.924 130.521 26.5609 130.702 26.2705C131.719 24.6004 134.623 24.0921 138.29 24.9998C138.544 25.0724 138.69 25.2902 138.617 25.5443C138.545 25.7985 138.327 25.9437 138.072 25.8711C134.914 25.0723 132.227 25.4354 131.465 26.7062C131.356 26.924 131.283 27.1419 131.247 27.4323C131.247 27.6502 131.029 27.8316 130.811 27.8316H130.775Z" fill="#342016"/>
<path d="M134.006 26.1973C134.333 27.0323 133.97 27.9401 133.207 28.2305C132.445 28.521 131.574 28.0852 131.247 27.2502C130.92 26.4152 131.283 25.5075 132.045 25.2171C132.808 24.9266 133.679 25.3623 134.006 26.1973Z" fill="#342016"/>
<path d="M120.464 29.8645C120.464 29.8645 120.246 29.8282 120.173 29.7556C119.992 29.574 119.956 29.3199 120.137 29.1021C120.537 28.6664 121.589 27.6498 123.296 27.4682C125.148 27.2867 126.455 28.1944 126.927 28.5937C127.108 28.739 127.144 29.0295 126.999 29.2473C126.854 29.4289 126.563 29.4651 126.346 29.3199C126.055 29.0658 124.93 28.267 123.405 28.4122C122.025 28.5575 121.117 29.3925 120.827 29.7556C120.754 29.8645 120.609 29.9008 120.5 29.9008L120.464 29.8645Z" fill="#342016"/>
<path d="M124.603 28.8475C124.821 29.7189 124.349 30.5902 123.55 30.7718C122.751 30.9533 121.953 30.4451 121.735 29.5737C121.517 28.7024 121.989 27.831 122.788 27.6495C123.586 27.468 124.385 27.9762 124.603 28.8475Z" fill="#342016"/>
<path d="M136.366 21.2965C136.366 21.2965 135.604 21.1149 134.878 21.1512C133.716 21.1875 131.247 21.7321 128.161 22.8213C127.979 22.6034 127.544 22.0589 127.435 21.1876C127.326 20.4614 127.544 19.8804 127.653 19.6263C129.795 19.5174 131.319 19.2633 132.409 19.0455C132.808 18.9729 134.006 18.6823 135.495 18.9365C136.076 19.0454 136.402 19.1544 136.584 19.2633C137.165 19.6264 138.254 20.3888 138.907 20.8608C138.726 21.006 138.181 21.4416 137.346 21.478C136.911 21.478 136.548 21.3691 136.33 21.2965H136.366Z" fill="#342016"/>
<path d="M123.477 23.7278C122.497 23.982 121.626 24.2724 120.827 24.5266C120.754 24.2724 120.718 24.0546 120.609 23.7642L120.537 23.3648C120.464 23.0017 120.355 22.6387 120.282 22.2756C120.9 21.9852 121.626 21.6221 122.425 21.1501C122.606 21.2954 123.042 21.5495 123.332 22.1304C123.659 22.8202 123.55 23.4374 123.514 23.7278H123.477Z" fill="#342016"/>
<path d="M130.158 34.4748C130.158 34.4748 129.286 35.4188 128.088 35.3824C127.326 35.3824 126.781 34.983 126.6 34.8378L130.158 34.4748Z" fill="#342016"/>
<path d="M129.795 42.0994C129.577 42.0994 129.359 41.9179 129.359 41.7001C129.359 41.4459 129.504 41.2281 129.758 41.1917L131.683 40.9377C131.937 40.9014 132.155 41.0829 132.191 41.337C132.191 41.5911 132.046 41.809 131.792 41.8453L129.867 42.0994C129.867 42.0994 129.831 42.0994 129.795 42.0994Z" fill="#342016"/>
<path d="M153.866 25.2896C153.721 28.0852 151.978 30.2636 150.017 30.1547C148.057 30.0458 146.605 27.6859 146.75 24.8903C146.895 22.0947 148.638 19.9163 150.598 20.0253C152.559 20.1342 154.011 22.494 153.866 25.2896Z" fill="#EA9950"/>
<path d="M127.108 155.448C127.326 159.441 126.273 163.036 124.385 165.904C116.87 167.175 108.265 167.937 98.7166 167.683C98.2446 167.683 97.7727 167.683 97.3007 167.683C81.7253 167.211 68.1467 164.27 57.509 161.039C55.6211 160.458 43.0229 156.827 42.442 151.599C41.97 147.279 50.03 144.048 54.2415 142.377C62.6645 139.11 76.352 135.733 97.3733 137.549C101.984 137.948 106.886 138.565 112.186 139.509C117.16 144.846 122.134 150.147 127.072 155.448H127.108Z" fill="#342016"/>
<path d="M0 252.383C13.0702 252.42 26.1405 252.456 39.2108 252.492C39.6101 251.04 39.9006 248.825 38.9929 246.465C38.6662 245.594 38.2668 244.977 38.0489 244.65C37.0324 242.98 35.798 240.185 35.1445 235.283C32.7846 235.029 30.3883 234.739 28.0284 234.484C19.0608 246.574 13.978 248.971 10.9645 248.825C8.85878 248.716 6.78929 249.878 4.68353 249.915C3.3039 249.915 1.63386 249.806 0.653596 250.895C0.217921 251.403 0.0363062 251.984 0 252.456V252.383Z" fill="#410FA3"/>
<path d="M25.9226 237.208C29.2628 238.043 32.6392 238.842 35.9794 239.677C36.6329 237.607 37.7221 234.231 39.2833 230.165C47.7426 207.619 55.2943 201.047 58.7797 187.505C60.3408 181.405 61.6116 172.038 58.7797 159.368C53.4064 156.608 48.0694 153.813 42.6961 151.053C41.6432 160.892 40.2635 171.167 38.4845 181.805C35.108 201.955 30.715 220.471 25.9226 237.208Z" fill="#EA9950"/>
<path d="M113.675 147.751L42.8777 140.417L23.9622 80.6574L94.7593 87.9913L113.675 147.751Z" fill="#410FA3"/>
<path d="M132.772 151.018L44.1847 142.341C43.2045 142.232 42.4783 141.36 42.5872 140.38C42.6962 139.4 43.5675 138.674 44.5478 138.783L133.135 147.46C134.115 147.569 134.841 148.44 134.732 149.42C134.623 150.401 133.752 151.127 132.772 151.018Z" fill="#410FA3"/>
<path d="M107.031 145.355L45.7095 139.328C45.4553 139.328 45.2739 139.074 45.3102 138.82C45.3102 138.566 45.5643 138.348 45.8184 138.421L107.103 144.447C107.357 144.447 107.539 144.702 107.503 144.956C107.503 145.21 107.285 145.355 107.067 145.355H107.031Z" fill="white"/>
<path d="M200.773 182.605C171.039 181.661 141.34 180.717 111.605 179.773C107.902 160.276 119.048 140.852 139.67 130.796C159.675 121.029 185.089 121.864 204.295 132.938C206.946 134.39 208.906 135.987 210.322 137.585C219.362 147.751 214.824 165.395 200.81 182.605H200.773Z" fill="#F76400"/>
<path d="M81.7253 255.071C75.5169 255.071 69.3086 255.035 63.1365 255.035C61.8658 255.035 60.595 255.035 59.3243 255.035C53.6969 255.035 48.1058 254.998 42.5146 254.998C42.5146 254.563 42.7325 253.982 43.1681 253.474C44.1121 252.384 45.7821 252.53 47.1981 252.493C49.3038 252.493 51.3733 251.331 53.4791 251.44C54.895 251.513 56.8192 251.041 59.3243 249.189C60.7766 248.173 62.4831 246.684 64.4073 244.615C65.6054 243.308 66.9123 241.783 68.4009 239.931C68.6913 239.532 69.0181 239.133 69.3449 238.733C69.7442 238.225 70.1437 237.68 70.543 237.136C72.9029 237.39 75.2991 237.68 77.659 237.934C77.7679 238.806 77.9131 239.568 78.0583 240.294C78.2399 241.275 78.4578 242.146 78.6756 242.908C79.2565 244.905 79.9463 246.321 80.5635 247.302C80.745 247.628 81.1444 248.209 81.4711 249.08C82.3788 251.44 82.052 253.655 81.689 255.107L81.7253 255.071Z" fill="#410FA3"/>
<path d="M68.4009 239.895C71.85 240.912 75.2628 241.928 78.7119 242.909C79.3291 240.658 80.3094 237.063 81.8342 232.743C89.4222 210.85 97.7 204.206 101.331 190.083C102.892 183.984 104.163 174.617 101.331 161.946C95.9573 159.186 90.6203 156.391 85.247 153.632C84.1941 163.471 82.8145 173.745 81.0355 184.383C77.6227 204.606 73.2296 223.122 68.4009 239.859V239.895Z" fill="#EA9950"/>
<path d="M198.885 181.915H109.064C108.81 181.915 108.628 181.697 108.628 181.479C108.628 181.261 108.846 181.043 109.064 181.043H198.885C199.139 181.043 199.321 181.261 199.321 181.479C199.321 181.697 199.103 181.915 198.885 181.915Z" fill="#342016"/>
<path d="M128.306 39.7032C127.979 39.7032 127.653 39.7033 127.435 39.6307C127.181 39.6307 126.999 39.3766 127.035 39.1224C127.035 38.8683 127.326 38.6867 127.544 38.723C128.161 38.7956 129.432 38.8683 130.702 38.2148C131.61 37.7428 132.191 37.1255 132.554 36.6535C132.699 36.472 132.99 36.3994 133.171 36.581C133.353 36.7262 133.425 37.0167 133.244 37.1982C132.663 37.9606 131.937 38.5779 131.102 39.0135C130.049 39.5218 129.032 39.667 128.27 39.667L128.306 39.7032Z" fill="#342016"/>
<path d="M128.088 14.7607C128.851 15.2689 128.379 16.2492 129.141 17.048C130.775 18.7181 134.26 15.6683 137.782 16.2492C143.446 17.1932 145.951 26.9595 147.73 26.3423C148.783 25.9793 147.948 22.4939 149.945 21.4048C151.07 20.7875 151.942 21.5499 152.559 21.0053C153.612 20.0251 151.796 17.1569 149.945 12.0015C148.202 7.13643 147.548 3.43318 146.496 3.46948C146.024 3.46948 146.024 4.19564 145.334 4.52239C143.881 5.17591 142.03 2.9975 139.779 1.65417C135.35 -0.923567 129.722 0.0566919 129.504 0.964347C129.359 1.65416 132.264 2.85225 132.082 3.21531C131.937 3.50576 130.121 2.34401 128.125 2.92491C126.2 3.46951 126.128 5.03062 124.712 5.13954C122.788 5.28476 121.771 2.48917 120.282 2.85223C119.302 3.10637 119.52 4.37707 118.177 5.1032C116.616 5.97454 115.309 4.77653 114.546 5.53896C113.566 6.48292 114.582 9.53262 115.889 11.5295C116.906 13.0906 117.668 13.3085 117.959 14.6155C118.358 16.5034 117.197 17.883 117.632 18.2098C118.322 18.7181 121.807 14.9422 122.098 15.1963C122.316 15.3778 120.537 17.4836 120.827 17.8104C121.335 18.355 126.237 13.5989 128.125 14.8333L128.088 14.7607Z" fill="#F76400"/>
<path d="M132.554 33.7114C129.359 33.7114 126.745 31.0973 126.745 27.9024C126.745 24.7074 129.359 22.0935 132.554 22.0935C135.749 22.0935 138.363 24.7074 138.363 27.9024C138.363 31.0973 135.749 33.7114 132.554 33.7114ZM132.554 22.9648C129.831 22.9648 127.653 25.1795 127.653 27.8661C127.653 30.5528 129.867 32.7675 132.554 32.7675C135.241 32.7675 137.455 30.5528 137.455 27.8661C137.455 25.1795 135.241 22.9648 132.554 22.9648Z" fill="#342016"/>
<path d="M119.52 36.5803C116.325 36.5803 113.711 33.9663 113.711 30.7713C113.711 27.5764 116.325 24.9623 119.52 24.9623C122.715 24.9623 125.329 27.5764 125.329 30.7713C125.329 33.9663 122.715 36.5803 119.52 36.5803ZM119.52 25.8337C116.797 25.8337 114.619 28.0483 114.619 30.735C114.619 33.4216 116.833 35.6363 119.52 35.6363C122.207 35.6363 124.421 33.4216 124.421 30.735C124.421 28.0483 122.207 25.8337 119.52 25.8337Z" fill="#342016"/>
<path d="M138.181 27.832C138.181 27.832 137.855 27.7231 137.782 27.5778C137.673 27.36 137.782 27.0696 138 26.9607L149.218 21.4421C149.436 21.3332 149.727 21.4421 149.836 21.6599C149.945 21.8777 149.836 22.1682 149.618 22.2772L138.399 27.7957C138.399 27.7957 138.254 27.832 138.181 27.832Z" fill="#342016"/>
<path d="M151.397 125.712C151.07 125.639 150.889 125.421 150.961 125.167L158.767 86.0655C158.803 85.8114 159.058 85.6661 159.312 85.7025C159.566 85.7388 159.711 85.9929 159.675 86.247L151.869 125.349C151.833 125.567 151.651 125.712 151.433 125.712H151.397Z" fill="#342016"/>
<path d="M104.562 110.501C104.162 110.392 104.054 110.138 104.126 109.92L115.454 76.7363C115.526 76.4822 115.817 76.3733 116.035 76.4459C116.289 76.5185 116.398 76.7726 116.325 77.0267L104.998 110.211C104.925 110.392 104.743 110.501 104.562 110.501Z" fill="#342016"/>
<path d="M93.9241 166.883C101.839 167.972 109.79 169.098 117.705 170.187C119.447 160.639 121.154 151.126 122.897 141.578C111.17 143.756 99.4427 145.935 87.7158 148.113C89.7853 154.358 91.8547 160.602 93.9241 166.883Z" fill="#342016"/>
<path d="M67.0576 238.225C73.4838 239.387 79.91 240.549 86.2999 241.71C91.0197 230.855 95.8121 217.857 99.6969 202.863C103.328 188.885 105.47 176.032 106.668 164.85C100.387 154.176 91.0197 149.747 85.4648 152.325C84.5209 152.76 81.9431 154.212 80.3093 159.077C75.8799 185.472 71.4143 211.867 66.985 238.225H67.0576Z" fill="#342016"/>
<path d="M25.487 235.975C31.768 236.339 38.0852 236.702 44.3662 237.028C51.8816 224.031 61.5391 202.646 62.0111 175.526C62.12 168.518 61.648 162.056 60.7767 156.211C54.6772 154.323 48.5777 152.435 42.4783 150.547C36.8145 179.011 31.1145 207.511 25.4507 235.975H25.487Z" fill="#342016"/>
<path d="M105.615 168.953C105.252 168.844 105.106 168.626 105.179 168.372L106.268 164.741C106.341 164.487 106.595 164.378 106.849 164.451C107.103 164.524 107.212 164.778 107.14 165.032L106.05 168.662C105.978 168.844 105.796 168.989 105.615 168.989V168.953Z" fill="white"/>
<path d="M79.1838 166.484C78.8207 166.411 78.6755 166.157 78.7481 165.939L82.4151 150.437C82.4877 150.182 82.7418 150.037 82.9597 150.11C83.2138 150.182 83.359 150.4 83.2864 150.655L79.6196 166.157C79.5833 166.375 79.3653 166.52 79.1838 166.52V166.484Z" fill="white"/>
<path d="M62.7372 120.012C61.2849 120.012 59.4697 118.124 58.3805 115.292C57.1098 112.061 57.3276 109.12 58.8525 108.539C60.4137 107.922 62.5194 109.919 63.8264 113.15C65.0972 116.381 64.8793 119.322 63.3544 119.903C63.1729 119.976 62.9551 120.012 62.7735 120.012H62.7372ZM59.2155 114.929C60.341 117.797 62.12 119.395 62.9914 119.032C63.8627 118.669 64.0805 116.309 62.9914 113.441C61.8659 110.573 60.0505 108.975 59.2155 109.338C58.3441 109.701 58.1263 112.061 59.2155 114.929Z" fill="white"/>
</svg>
