<svg width="215" height="235" viewBox="0 0 215 235" fill="none" xmlns="http://www.w3.org/2000/svg">
<path d="M171.369 134.907L144.265 234.617H138.109L165.655 133.343C166.063 131.813 167.662 130.895 169.192 131.303C170.858 131.745 171.743 133.343 171.369 134.907Z" fill="#342016"/>
<path d="M181.741 134.908L208.845 234.617H215L187.454 133.343C187.046 131.813 185.448 130.895 183.917 131.303C182.251 131.745 181.367 133.343 181.741 134.908Z" fill="#342016"/>
<path d="M187.896 131.2H165.213V135.689H187.896V131.2Z" fill="#342016"/>
<path d="M179.326 110.082H173.749V141.675H179.326V110.082Z" fill="#342016"/>
<path d="M206.022 213.396H144.809V218.565H206.022V213.396Z" fill="#342016"/>
<path d="M185.686 111.782H167.424V115.523H185.686V111.782Z" fill="#342016"/>
<path d="M197.656 94.3708H110.869C108.489 94.3708 106.551 92.4324 106.551 90.0518V27.3422C106.551 24.9617 108.489 23.0233 110.869 23.0233H197.656C200.037 23.0233 201.975 24.9617 201.975 27.3422V90.0518C201.975 92.4324 200.037 94.3708 197.656 94.3708ZM110.869 23.8395C108.965 23.8395 107.401 25.4038 107.401 27.3082V90.0178C107.401 91.9222 108.965 93.4866 110.869 93.4866H197.656C199.561 93.4866 201.125 91.9222 201.125 90.0178V27.3082C201.125 25.4038 199.561 23.8395 197.656 23.8395H110.869Z" fill="#694343"/>
<path d="M161.745 93.9287H146.747V107.396H161.745V93.9287Z" fill="#694343"/>
<path d="M173.511 108.041H134.981C134.301 108.041 133.756 107.497 133.756 106.816C133.756 106.136 134.301 105.592 134.981 105.592H173.511C174.191 105.592 174.735 106.136 174.735 106.816C174.735 107.497 174.191 108.041 173.511 108.041Z" fill="#694343"/>
<path d="M210.545 112.734H73.1893C71.7269 112.734 70.5027 111.544 70.5027 110.048C70.5027 108.552 71.6929 107.361 73.1893 107.361H210.545C212.007 107.361 213.232 108.552 213.232 110.048C213.232 111.544 212.041 112.734 210.545 112.734Z" fill="#342016"/>
<path d="M83.8676 142.016C60.5725 145.893 37.2435 149.77 13.9484 153.646C10.7517 144.362 -2.27312 105.322 0.345452 80.7006C0.821556 76.3136 0.75354 70.2603 5.31053 67.3356C11.4319 63.4248 20.7159 59.1398 32.5164 58.7318C58.7021 57.8136 75.0257 76.8917 77.0661 79.3403L83.8676 142.05V142.016Z" fill="#342016"/>
<path d="M83.9359 83.6579H105.565V90.5614C105.565 98.6891 98.9671 105.321 90.8054 105.321H83.9019V83.6919L83.9359 83.6579Z" fill="#D6185D"/>
<path d="M104.272 115.422L106.959 130.997C98.3209 138.173 86.2483 146.504 70.5369 152.966C63.6674 155.788 57.172 157.829 51.2207 159.291C44.6913 157.183 40.2363 151.197 40.1343 144.532C40.0663 138.513 43.569 132.935 49.0782 130.215C59.2124 126.032 71.149 121.985 84.752 118.89C91.5874 117.326 98.1169 116.204 104.238 115.388L104.272 115.422Z" fill="#EA9950"/>
<path d="M111.856 120.317C113.828 124.466 111.992 129.499 108.285 131.812C105.462 133.546 101.824 133.546 98.7289 131.88C98.0488 130.384 97.3006 128.887 96.5185 127.357C95.8723 126.065 95.2262 124.806 94.546 123.582C94.648 123.004 95.4302 118.515 99.3411 116.475C103.456 114.332 109.577 115.658 111.822 120.351L111.856 120.317Z" fill="#EA9950"/>
<path d="M138.551 191.222C136.953 192.446 135.355 193.67 133.79 194.894C131.852 192.242 128.893 188.093 124.983 183.128C124.744 182.822 124.506 182.482 124.234 182.142C111.074 165.648 104.714 161.465 100.939 151.297C99.409 147.114 97.8106 140.687 98.6948 131.743C98.6948 131.607 98.7288 131.437 98.7288 131.301C103.286 128.104 107.843 124.873 112.4 121.711C116.277 134.531 120.868 148.134 126.343 162.281C128.519 167.825 130.696 173.266 132.94 178.469C134.777 182.822 136.681 187.073 138.551 191.222Z" fill="#EA9950"/>
<path d="M166.029 195.134L139.028 210.777C138.041 209.723 136.783 208.057 136.307 205.744C136.137 204.86 136.137 204.214 136.137 203.874C136.103 202.037 135.661 199.249 133.79 194.896C135.355 193.706 136.953 192.481 138.551 191.223C150.862 197.378 155.725 197.242 157.8 195.848C158.344 195.44 160.35 193.91 162.867 194.046C164.261 194.114 165.315 194.692 166.029 195.134Z" fill="#EA9950"/>
<path d="M89.547 150.721C80.569 152.183 71.149 154.088 61.3208 156.57C57.8521 157.454 54.4854 158.339 51.2206 159.291C49.3842 158.543 39.046 154.19 36.5295 144.293C35.5092 140.315 36.1554 137.016 36.6995 134.499C38.978 123.447 46.5276 116.135 50.7105 112.735C46.6296 102.974 42.6168 92.5682 38.8079 81.5158C36.5295 74.9184 34.489 68.457 32.5846 62.1656C32.5846 62.0976 32.5846 62.0296 32.6186 61.9956C33.9449 56.0103 36.8015 54.5139 37.7197 54.0038C40.4743 52.4395 42.9228 52.8476 47.0717 53.4257C54.1793 54.4119 54.1793 51.0452 64.4835 50.3991C66.558 50.263 69.6526 50.093 73.2914 50.6031C73.3595 50.6711 73.4275 50.7051 73.4955 50.7731C77.1683 53.7658 82.0994 52.7116 85.8402 55.2621C87.6766 57.8807 87.8126 61.3494 87.4385 64.4101C87.3365 65.2603 87.2005 66.1105 87.0304 66.8926C84.956 74.6803 84.4799 88.3173 82.8815 99.4037C81.6232 108.076 79.8549 114.265 82.5755 120.726C82.8135 121.304 82.9495 121.509 83.4256 122.665C84.6159 125.453 86.6904 130.793 88.0847 137.662C89.1729 143.103 89.513 147.694 89.581 150.721H89.547Z" fill="#EA9950"/>
<path d="M89.0029 76.3122C88.9349 80.7331 85.2961 84.2699 80.8751 84.2359C76.4542 84.2018 72.9174 80.5291 72.9514 76.1081C73.0194 71.6871 76.6582 68.1504 81.0792 68.1844C85.5001 68.2184 89.0369 71.8912 89.0029 76.3122Z" fill="#EA9950"/>
<path d="M89.5809 64.8854C88.7307 64.8174 87.9146 64.7493 87.0304 64.6133C68.9044 62.6409 50.7105 60.6685 32.5505 58.696C33.0947 56.3835 34.3869 53.2888 37.1415 51.1124C41.4945 47.7796 45.1673 50.3302 51.3566 47.3716C57.2399 44.583 60.1985 39.2438 61.0827 37.6114C62.9871 34.2107 63.7013 31.048 63.9394 29.0076C64.4835 29.3476 65.2656 29.8237 66.2519 30.4699C66.3539 30.5379 66.4899 30.6059 66.5919 30.7079C67.9182 31.5921 68.8364 32.2383 69.3805 32.6124C70.5368 33.4285 72.3392 34.5848 74.7537 35.9791C73.9035 37.0333 72.1691 39.4819 71.9311 42.9166C71.8971 43.2567 71.8631 43.8008 71.8631 44.4469C71.8631 46.0793 72.2032 48.3918 73.8015 49.9901C73.8695 50.0581 73.9035 50.0922 73.9715 50.1602C77.4403 53.3569 82.4394 52.6087 85.9762 55.4313C86.5203 55.8394 87.0644 56.3495 87.5065 56.9957C89.5129 59.6482 89.6489 62.8789 89.5129 64.9194L89.5809 64.8854Z" fill="#EA9950"/>
<path d="M63.9055 51.8955C64.3136 52.7117 65.0618 53.1538 65.8439 53.0178C66.9322 52.8137 67.4083 51.5894 67.4423 51.4874L63.9055 51.8955Z" fill="#342016"/>
<path d="M67.9523 54.616C68.1564 54.7861 68.4965 55.0241 68.9045 55.2622C70.2988 56.0443 71.5231 56.0103 72.3393 55.9763C75.434 55.8403 78.2906 55.3982 79.2428 55.2622C77.0323 55.1942 74.8558 55.1601 72.6454 55.0921L67.9183 54.616H67.9523Z" fill="#342016"/>
<path d="M63.7353 54.2763C63.3952 54.4124 62.8511 54.5824 62.171 54.7524C59.9265 55.2626 58.1241 54.9905 56.8318 54.7524C52.2408 54.0043 48.0239 53.0181 46.5956 52.678L56.5257 53.8002L63.7353 54.2763Z" fill="#342016"/>
<path d="M99.9532 133.887C99.307 134.669 98.6609 135.417 97.9808 136.199C93.6278 141.3 89.2749 146.401 84.9219 151.502C73.6995 154.087 62.4771 156.672 51.2206 159.29C49.1122 158.644 39.5221 155.379 35.7472 146.503C31.1903 135.791 36.7675 120.794 50.7105 112.734C61.1508 113.312 71.625 113.89 82.0653 114.468C87.8126 115.115 93.5938 115.761 99.341 116.441L99.9192 133.921L99.9532 133.887Z" fill="#5BA890"/>
<path d="M105.088 140.553C105.054 146.47 97.6406 149.054 96.8585 149.327C91.8594 150.993 87.4384 148.986 86.3842 148.442C86.0101 147.218 85.568 145.314 85.7381 143.001C85.9761 139.6 87.3364 137.118 88.1186 135.928C88.4587 135.451 91.1112 131.745 95.5662 131.609C100.225 131.473 105.122 135.349 105.088 140.553Z" fill="#EA9950"/>
<path d="M104.918 142.049C102.776 155.277 101.007 169.493 99.7831 184.66C99.341 190.203 99.001 195.678 98.7289 201.017C98.4569 206.187 98.2868 211.288 98.1848 216.253C96.1784 216.593 94.2059 216.933 92.1995 217.273C92.1995 217.205 92.1655 217.137 92.1655 217.001C91.6214 213.532 90.6352 208.159 89.1388 201.63C89.1048 201.46 89.0708 201.221 89.0028 201.017C84.4798 180.919 80.637 174.39 81.7252 163.677C82.0993 159.937 83.1875 154.665 86.3842 148.442C87.0304 147.252 87.7105 145.993 88.5267 144.701C93.9339 143.817 99.4091 142.933 104.884 142.049H104.952H104.918Z" fill="#EA9950"/>
<path d="M119.949 233.394H88.7647C88.4246 231.966 88.1525 229.891 88.9347 227.647C89.2068 226.797 89.5468 226.218 89.7169 225.946C90.567 224.382 91.5873 221.696 92.1314 217.003C94.1378 216.73 96.1103 216.526 98.1507 216.254C105.7 227.749 109.951 230.061 112.468 229.857C113.148 229.823 115.63 229.483 117.773 230.912C118.895 231.66 119.575 232.68 119.949 233.394Z" fill="#EA9950"/>
<path d="M51.2547 158.747C51.2547 158.747 50.9827 158.679 50.9146 158.543C50.7786 158.339 50.8466 158.067 51.0507 157.965L86.5204 134.635C86.7244 134.499 86.9965 134.567 87.0985 134.771C87.2345 134.976 87.1665 135.248 86.9625 135.35L51.4928 158.679C51.4928 158.679 51.3227 158.747 51.2547 158.747Z" fill="#573828"/>
<path d="M82.7116 115.25C71.2171 115.454 59.6886 115.658 48.1941 115.863C48.1941 115.829 47.854 110.625 47.854 110.591C47.854 110.523 47.5139 105.014 47.5139 104.946C58.9064 105.626 70.2649 106.34 81.6573 107.021L82.7116 115.216V115.25Z" fill="#5BA890"/>
<path d="M84.548 110.388C79.0048 112.361 70.1288 114.673 59.2125 113.993C53.1932 113.619 48.0581 112.463 44.0452 111.204C42.9569 110.898 41.4606 110.252 40.5424 108.858C39.2841 106.988 39.7602 104.675 39.8283 104.199C40.3044 101.206 38.1279 90.868 28.8439 63.016C29.1159 59.8193 30.0341 55.3303 33.4349 52.3377C36.1555 49.9232 38.9441 49.8211 44.2832 48.1888C47.5139 47.2026 52.207 45.5022 57.7162 42.4755C57.9882 42.9516 61.3209 48.8689 67.4083 49.175C69.6187 49.277 71.3871 48.5969 72.5094 48.0527C73.6996 49.107 75.536 50.5013 78.0526 51.5215C80.6031 52.5417 81.0112 52.0316 83.1877 52.9158C84.1399 53.2899 88.9349 55.3984 90.6353 60.2954C91.3495 62.3359 91.2474 64.1043 91.1794 65.0225C90.0232 80.1217 82.1335 89.4397 85.5002 98.5877C86.3504 100.866 88.2888 104.199 86.8945 107.464C86.2824 108.926 85.1941 109.844 84.48 110.388H84.548Z" fill="#D6185D"/>
<path d="M36.5294 105.287C32.8226 104.028 29.1158 102.77 25.409 101.478C24.4908 93.316 24.1167 83.6238 25.137 72.8775C25.5451 68.4906 26.1572 64.3757 26.9054 60.5328C28.7077 53.6293 34.1149 50.4326 36.9715 51.4528C39.4881 52.337 41.3245 57.0301 40.2022 62.4372C38.978 76.7203 37.7537 91.0034 36.5294 105.287Z" fill="#EA9950"/>
<path d="M68.4964 76.2115C69.3126 77.4358 70.1627 78.694 70.9789 79.9183C64.2795 88.0461 54.5193 97.6021 40.9164 105.152C37.6517 106.988 34.455 108.519 31.3603 109.845C28.3677 109.165 26.0212 107.124 25.307 104.438C24.6949 102.193 25.409 100.289 25.7151 99.5746C28.5377 97.1941 30.9522 95.5617 32.3805 94.6435C44.2831 87.0599 52.3089 87.808 63.5313 80.0884C65.8778 78.456 67.6462 76.9937 68.5304 76.2115H68.4964Z" fill="#EA9950"/>
<path d="M38.1958 91.3771C37.7877 91.7852 31.8704 98.0765 34.0129 104.436C34.3189 105.354 34.897 106.51 35.9513 107.735C35.4752 108.313 34.659 109.129 33.4007 109.639C33.4007 109.639 30.6121 110.795 27.0413 109.197C18.7095 105.49 20.5799 53.3908 35.6792 50.0581C37.0735 49.752 38.3318 49.9221 39.08 50.0581C40.0662 52.1326 41.0184 54.173 42.0046 56.2475C40.7463 67.946 39.488 79.6445 38.2298 91.3431L38.1958 91.3771Z" fill="#D6185D"/>
<path d="M75.1618 99.0643L48.0919 84.6112L77.7124 54.2426L104.782 68.6617L75.1618 99.0643Z" fill="#410FA3"/>
<path d="M65.6399 93.4179C60.8788 93.0098 56.0838 92.6358 51.3227 92.2277C50.9487 91.3435 50.2345 89.371 50.7786 87.0926C51.5268 83.8959 54.3834 81.3453 58.0902 80.5631C60.7428 81.9234 63.3614 83.2497 66.0139 84.61C67.9184 85.5622 69.0066 87.5687 68.7345 89.5751C68.4965 91.2755 67.3062 92.7718 65.6399 93.4179Z" fill="#EA9950"/>
<path d="M92.5057 103.281C86.6564 101.886 80.8072 100.458 74.9579 99.0638C84.888 88.9296 94.8522 78.7954 104.782 68.6612C109.339 70.6676 113.896 72.674 118.453 74.6805C109.815 84.2025 101.144 93.7586 92.5057 103.281Z" fill="#410FA3"/>
<path d="M92.3356 99.7785C91.8255 99.6765 91.3154 99.5404 90.8053 99.4384C90.9073 96.7178 91.0433 93.9973 91.1454 91.2767C91.2814 89.8144 91.8255 89.0662 92.1996 88.7261C94.002 86.9577 98.1509 87.3998 102.232 90.3585C102.742 93.8952 101.28 97.296 98.491 98.9963C95.8044 100.629 92.9818 99.9825 92.3016 99.8125L92.3356 99.7785Z" fill="#EA9950"/>
<path d="M75.9099 98.7227C75.9099 98.7227 75.7059 98.6887 75.6038 98.6207C75.4338 98.4506 75.4338 98.1786 75.6038 98.0085L102.062 70.1905C102.062 70.1905 102.504 70.0204 102.674 70.1905C102.844 70.3605 102.844 70.6326 102.674 70.8026L76.216 98.6207C76.216 98.6207 76.0119 98.7567 75.9099 98.7567V98.7227Z" fill="#342016"/>
<path d="M38.298 90.8339C38.0599 90.8339 37.8899 90.6639 37.8899 90.4258L36.9037 69.5793C36.9037 69.3412 37.0737 69.1372 37.3118 69.1372C37.5498 69.1372 37.7539 69.3072 37.7539 69.5453L38.7401 90.3918C38.7401 90.6299 38.57 90.8339 38.332 90.8339H38.298Z" fill="#342016"/>
<path d="M104.238 146.776C104.238 146.776 104.102 146.776 104.034 146.742C103.83 146.64 103.728 146.368 103.83 146.164C104.306 145.212 105.735 141.845 104.204 138.07C102.878 134.738 100.157 133.207 99.0352 132.731C98.8312 132.629 98.7291 132.391 98.8312 132.187C98.9332 131.983 99.1712 131.881 99.4093 131.983C100.6 132.527 103.558 134.16 105.021 137.798C106.653 141.913 105.123 145.586 104.612 146.606C104.544 146.742 104.374 146.844 104.238 146.844V146.776Z" fill="#573828"/>
<path d="M74.8218 35.9452C73.9716 36.9995 72.2372 39.448 71.9992 42.8827C71.9651 43.2228 71.9311 43.7669 71.9311 44.4131C68.4964 44.005 65.8098 34.755 66.3199 30.47C66.4219 30.538 66.558 30.6061 66.66 30.7081C67.9863 31.5923 68.9045 32.2384 69.4486 32.6125C70.6049 33.4287 72.4072 34.5849 74.8218 35.9792V35.9452Z" fill="#342016"/>
<path d="M92.4035 28.5671C92.4035 36.0487 88.1865 42.136 82.9834 42.136C77.7803 42.136 73.5634 36.0487 73.5634 28.5671C73.5634 21.0855 77.7803 14.9982 82.9834 14.9982C88.1865 14.9982 92.4035 21.0855 92.4035 28.5671Z" fill="#F76400"/>
<path d="M89.6148 18.4328C89.6148 18.4328 89.5128 18.7389 89.4788 18.8749C89.3767 19.181 89.2747 19.5211 89.1727 19.7931C89.1047 19.9972 89.0367 20.1672 88.9687 20.3713C88.8666 20.6093 88.7646 20.8474 88.6966 21.1194C88.2545 22.2077 87.8464 22.9218 87.3363 24.5542C86.4181 27.5128 86.6902 28.431 86.078 30.1994C85.2619 32.5119 83.8335 33.8722 82.0312 35.6406C81.7251 35.9467 77.8482 39.6535 74.9236 39.6535C73.9374 39.6535 72.9512 39.4154 72.9512 39.4154C72.305 39.2454 71.7269 39.0073 71.1488 38.6672C70.4686 38.2932 65.3335 34.8924 62.749 29.1112C59.5863 21.9016 59.4843 8.77474 67.8501 3.77566C73.0192 0.714992 79.0385 2.17731 81.351 2.92547C81.5891 2.99349 81.8611 3.0955 82.2012 3.23153C82.2012 3.23153 83.3914 3.70764 84.4457 4.35378C88.2545 6.59826 89.6488 9.65895 89.6488 9.65895C90.9751 12.6176 90.431 15.9163 89.6488 18.3988L89.6148 18.4328Z" fill="#EA9950"/>
<path d="M60.2322 17.1384C59.5181 19.3829 60.3002 21.5933 61.9326 22.1035C63.5649 22.6136 65.4694 21.2193 66.1835 19.0088C66.8977 16.7643 66.1155 14.5538 64.4831 14.0437C62.8508 13.5336 60.9464 14.9279 60.2322 17.1384Z" fill="#EA9950"/>
<path d="M62.6809 22.6482C62.4088 22.6482 62.1027 22.6142 61.8307 22.5121C60.6744 22.1381 59.8583 21.0838 59.6202 19.6215C59.5862 19.3834 59.7562 19.1794 59.9603 19.1454C60.2323 19.1454 60.4024 19.2814 60.4364 19.4855C60.6064 20.6077 61.2185 21.4579 62.0687 21.6959C62.4428 21.798 62.8509 21.798 63.293 21.6959C63.531 21.6279 63.7691 21.764 63.8371 21.968C63.9051 22.2061 63.7691 22.4441 63.5651 22.5121C63.259 22.6142 62.9869 22.6482 62.6809 22.6482Z" fill="#342016"/>
<path d="M59.9943 19.418C59.7562 19.418 59.5862 19.248 59.5862 19.01C59.5862 18.4658 59.6202 17.9217 59.7562 17.3776C59.8242 17.1395 60.0623 17.0035 60.2663 17.0715C60.5044 17.1395 60.6404 17.3436 60.5724 17.5816C60.4704 18.0577 60.4024 18.4998 60.4364 18.9759C60.4364 19.214 60.2663 19.418 60.0283 19.418H59.9943Z" fill="#342016"/>
<path d="M60.4022 17.1389C60.0281 17.0368 59.9261 16.7648 59.9941 16.5608C60.8783 14.3503 62.8508 13.092 64.6191 13.6361C65.0272 13.7721 65.4013 13.9762 65.7074 14.2822C65.8774 14.4523 65.8774 14.7243 65.7074 14.8944C65.5373 15.0644 65.2653 15.0644 65.0953 14.8944C64.8572 14.6903 64.6191 14.5203 64.3471 14.4523C63.0208 14.0442 61.4905 15.0984 60.7763 16.8668C60.7083 17.0368 60.5383 17.1389 60.3682 17.1389H60.4022Z" fill="#342016"/>
<path d="M63.2248 20.6424C63.0208 20.6424 62.8168 20.4723 62.8168 20.2343L62.4767 16.0514C62.4767 15.8133 62.6467 15.6093 62.8508 15.6093C63.0888 15.5753 63.2929 15.7793 63.2929 15.9834L63.6329 20.1663C63.6329 20.4043 63.4629 20.6084 63.2589 20.6084L63.2248 20.6424Z" fill="#342016"/>
<path d="M63.1569 18.2279C63.1569 18.2279 62.9188 18.1939 62.8508 18.0919C62.6808 17.9219 62.7148 17.6498 62.8848 17.4798L63.973 16.5276C64.1431 16.3915 64.4151 16.3915 64.5852 16.5616C64.7552 16.7316 64.7212 17.0037 64.5512 17.1737L63.4629 18.1259C63.4629 18.1259 63.2929 18.2279 63.1909 18.2279H63.1569Z" fill="#342016"/>
<path d="M74.6515 20.6772C74.3454 21.4593 73.3592 21.8334 72.441 21.4933C71.5228 21.1533 71.0127 20.2691 71.2847 19.4869C71.5908 18.7047 72.577 18.3306 73.4952 18.6707C74.4134 19.0108 74.9235 19.895 74.6515 20.6772Z" fill="#342016"/>
<path d="M69.4485 17.9216C72.7132 17.4115 74.0055 17.9896 74.5156 18.7378C74.9917 19.4519 74.8217 20.4381 75.1617 20.4721C75.5018 20.5061 76.1479 19.5199 75.9779 18.6017C75.8419 17.9556 75.3658 17.5815 75.1957 17.4455C73.4614 16.0852 69.7886 17.7515 69.4485 17.8876V17.9216Z" fill="#D86C12"/>
<path d="M75.1957 20.812C75.1957 20.812 75.0597 20.812 74.9916 20.744C74.8556 20.6759 74.7876 20.5399 74.7876 20.4039C74.7876 20.1318 74.7196 19.8598 74.6176 19.6557C74.0394 18.4995 71.965 18.0234 69.4484 18.4655C69.2104 18.4995 69.0063 18.3634 68.9723 18.1254C68.9383 17.8873 69.0744 17.6833 69.3124 17.6493C72.237 17.1392 74.6516 17.7853 75.3997 19.2816C75.4677 19.4177 75.5358 19.5877 75.5698 19.7577L76.3859 19.3497C76.59 19.2476 76.8621 19.3497 76.9641 19.5537C77.0661 19.7577 76.9641 20.0298 76.76 20.1318L75.3997 20.812C75.3997 20.812 75.2637 20.846 75.1957 20.846V20.812Z" fill="#342016"/>
<path d="M87.6424 24.0426C87.5744 24.8588 86.7242 25.5049 85.738 25.4369C84.7518 25.3689 84.0036 24.6547 84.1056 23.8046C84.1736 22.9884 85.0238 22.3423 86.01 22.4103C86.9963 22.4783 87.7444 23.1924 87.6424 24.0426Z" fill="#342016"/>
<path d="M81.8612 22.8536C84.8538 21.4933 86.2481 21.6973 86.9283 22.2755C87.5744 22.8196 87.6764 23.8058 88.0165 23.7718C88.3566 23.7378 88.6966 22.5815 88.2885 21.7654C87.9825 21.1872 87.4384 20.9492 87.2343 20.8812C85.1939 20.031 82.0992 22.6155 81.8271 22.8536H81.8612Z" fill="#D86C12"/>
<path d="M88.0845 24.1107C87.8124 24.0427 87.7104 23.9407 87.6764 23.8047C87.6084 23.5326 87.4724 23.2946 87.3023 23.1245C86.4522 22.1723 84.3097 22.2743 81.9972 23.3966C81.7931 23.4986 81.5211 23.3966 81.4191 23.1925C81.317 22.9885 81.4191 22.7164 81.6231 22.6144C84.3097 21.3221 86.7922 21.2881 87.9145 22.5464C88.0165 22.6824 88.1185 22.8184 88.2205 22.9545L88.9007 22.3423C89.0707 22.1723 89.3428 22.2063 89.5128 22.3423C89.6828 22.5124 89.6488 22.7844 89.5128 22.9545L88.3906 23.9747C88.3906 23.9747 88.2205 24.0767 88.1185 24.0767L88.0845 24.1107Z" fill="#342016"/>
<path d="M71.1829 11.8355C72.3391 12.1416 73.9035 12.6857 75.6038 13.6379C77.0661 14.4541 78.1884 15.3383 79.0046 16.0525C79.1066 15.8484 79.2086 15.6104 79.2766 15.3383C79.4467 14.6582 79.3786 14.046 79.2766 13.6719C78.1204 13.0258 77.1001 12.5497 76.352 12.2436C74.5496 11.4614 73.9715 11.3594 73.5974 11.3254C72.5092 11.2574 71.659 11.5975 71.1829 11.8355Z" fill="#342016"/>
<path d="M79.9567 14.0124C79.9567 14.2504 79.9568 14.5905 79.8887 14.9986C79.7527 15.6788 79.4126 16.2909 79.3446 16.2569C79.2766 16.2569 79.4466 15.4067 79.5147 15.1686C79.5827 14.8286 79.6847 14.5225 79.6847 14.0464C79.6847 13.9444 79.6847 13.8424 79.6847 13.7743L79.9908 14.0124H79.9567Z" fill="#342016"/>
<path d="M89.4788 18.909C89.3768 19.215 89.2748 19.5551 89.1728 19.8272C89.1047 20.0312 89.0367 20.2013 88.9687 20.4053C88.6626 20.2013 88.3226 20.0312 87.9825 19.8272C86.5202 19.011 85.1259 18.5689 84.0717 18.2968C84.2077 18.1268 84.3437 17.9227 84.5137 17.6847C84.9899 17.1746 85.568 16.9025 85.9081 16.7665C87.0983 17.4127 88.0165 17.9568 88.7307 18.4329C89.0027 18.6029 89.2408 18.7729 89.4788 18.909Z" fill="#342016"/>
<path d="M85.2958 16.3571C85.0918 16.4931 84.8197 16.6632 84.5137 16.9693C84.0036 17.4794 83.6975 18.0575 83.7655 18.0915C83.8335 18.1595 84.4116 17.5474 84.5817 17.3773C84.8537 17.1053 85.0578 16.8672 85.4319 16.6292C85.5339 16.5612 85.6019 16.5272 85.6699 16.4931L85.2958 16.3911V16.3571Z" fill="#342016"/>
<path d="M78.1884 27.3081C78.6985 27.2061 79.1406 27.3081 79.5827 27.4102C80.0248 27.5462 80.4328 27.7502 80.7729 28.1243C80.2628 28.2263 79.8207 28.1243 79.3786 28.0223C78.9365 27.8863 78.5284 27.6822 78.1884 27.3081Z" fill="#342016"/>
<path d="M80.0248 32.884C79.0726 32.884 77.9164 32.748 76.6581 32.3059C75.3998 31.8638 74.2776 31.1496 73.2913 30.2314C73.1213 30.0614 73.1213 29.7893 73.2913 29.6193C73.4614 29.4493 73.7334 29.4493 73.9035 29.6193C74.7877 30.4695 75.8419 31.0816 76.9641 31.5237C78.5965 32.1358 80.0928 32.1018 81.045 31.9998C81.2831 31.9998 81.4871 32.1358 81.5211 32.3739C81.5211 32.6119 81.3851 32.816 81.1471 32.85C80.841 32.884 80.4669 32.918 80.0588 32.918L80.0248 32.884Z" fill="#342016"/>
<path d="M80.5688 32.4428C80.2967 33.2589 78.6303 33.463 77.5081 33.2249C75.8077 32.8508 74.3794 31.3545 74.6175 30.7424C74.6175 30.6744 74.7535 30.5383 76.2838 30.3343C77.7802 30.1643 78.5283 30.0623 79.0384 30.2663C79.9226 30.6404 80.7728 31.6946 80.5348 32.4088L80.5688 32.4428Z" fill="white"/>
<path d="M79.3785 30.0281C79.3785 30.0281 79.5485 30.6062 79.3105 30.9123C79.0384 31.2523 78.4603 31.0823 77.3721 30.9123C75.2976 30.5722 74.8555 30.7082 74.8215 30.5042C74.6855 29.96 76.862 28.4637 78.3583 29.0418C78.5283 29.1099 79.2085 29.3819 79.3785 30.0281Z" fill="#D86C12"/>
<path d="M80.6029 31.0477C80.909 31.8299 81.079 32.272 80.943 32.408C80.807 32.5441 80.5349 32.272 78.6985 31.2178C78.3244 31.0137 77.9843 30.8097 77.8143 30.4356C77.6783 30.1636 77.5763 29.6535 77.8143 29.3814C78.1884 28.9393 79.3786 29.2114 79.9908 29.8575C80.2288 30.0955 80.3649 30.4356 80.6369 31.0477H80.6029Z" fill="#D86C12"/>
<path d="M80.8068 32.2053C81.0109 32.5114 80.2967 33.4636 79.4465 33.9397C78.1882 34.6198 76.896 34.2117 76.7939 34.1777C75.1616 33.6336 74.0393 31.7632 74.4814 30.811C74.5154 30.709 74.6175 30.5389 74.7875 30.4369C75.5017 30.0968 76.2498 31.7972 77.9842 32.0013C78.2563 32.0013 79.0384 32.1033 79.9566 32.0693C80.5007 32.0693 80.7388 32.0012 80.8408 32.1373L80.8068 32.2053Z" fill="#D86C12"/>
<path d="M65.6395 22.5135C66.1837 26.6964 68.2921 28.3967 67.0679 31.0493C65.4695 34.5521 59.9603 35.9124 55.7774 35.1982C51.7645 34.5181 47.1055 31.5594 46.7654 27.8526C46.5954 25.9482 47.6496 24.5199 49.0779 22.4794C57.5458 10.3728 56.3895 8.40038 60.9125 5.44174C64.8914 2.85718 70.8087 1.12281 72.237 2.9252C74.2774 5.50976 64.3473 12.4813 65.6395 22.4794V22.5135Z" fill="#F76400"/>
<path d="M93.7638 5.67923C96.9605 12.1746 90.193 20.1324 89.1728 19.8263C88.4586 19.5883 90.397 15.3033 88.1866 12.8548C86.6562 11.1544 84.3097 11.6986 80.6709 11.3585C74.8557 10.8144 67.5441 8.16177 67.5441 5.67923C67.5441 2.55055 73.4273 0 80.6709 0C82.9154 0 90.9752 -6.08099e-06 93.7978 5.67923H93.7638Z" fill="#F76400"/>
<path d="M119.95 233.392H88.7649C88.4248 231.964 88.1528 229.89 88.9349 227.645C89.207 226.795 89.5471 226.217 89.7171 225.945C90.5673 224.38 91.5875 221.694 92.1316 217.001C91.5875 213.532 90.6013 208.159 89.105 201.629C89.071 201.459 89.037 201.221 88.9689 201.017H98.6951C98.423 206.186 98.253 211.288 98.1509 216.253C107.333 223.734 111.244 226.455 112.944 227.339C113.658 227.713 114.372 228.121 115.121 228.495C117.671 229.788 118.555 229.924 119.236 230.91C119.542 231.352 119.95 232.1 119.95 233.392Z" fill="#410FA3"/>
<path d="M166.03 195.134L139.028 210.778C138.042 209.723 136.783 208.057 136.307 205.745C136.137 204.86 136.137 204.214 136.137 203.874C136.103 202.038 135.661 199.249 133.791 194.896C131.852 192.244 128.894 188.095 124.983 183.13C127.669 181.565 130.322 180.035 132.974 178.471C134.811 182.824 136.715 187.075 138.586 191.223C142.326 193.264 145.455 193.808 147.598 193.91C151.202 194.08 155.929 193.264 159.67 193.23C162.391 193.23 162.119 193.638 163.751 193.536C163.989 193.536 164.499 193.468 165.043 193.774C165.656 194.114 165.962 194.76 166.098 195.168L166.03 195.134Z" fill="#410FA3"/>
<path d="M80.705 159.29H17.0771C14.3565 159.29 12.1121 157.045 12.1121 154.325C12.1121 151.604 14.3565 149.36 17.0771 149.36H80.739C83.4596 149.36 85.704 151.604 85.704 154.325C85.704 157.045 83.4596 159.29 80.739 159.29H80.705Z" fill="#342016"/>
<path d="M54.3492 157.048H54.1111C52.7588 157.048 51.6626 158.144 51.6626 159.496V226.899C51.6626 228.251 52.7588 229.347 54.1111 229.347H54.3492C55.7015 229.347 56.7977 228.251 56.7977 226.899V159.496C56.7977 158.144 55.7015 157.048 54.3492 157.048Z" fill="#342016"/>
<path d="M83.2895 229.311C83.2895 231.726 70.5708 233.664 54.9274 233.664C39.284 233.664 26.5652 231.726 26.5652 229.311C26.5652 226.897 39.284 224.958 54.9274 224.958C70.5708 224.958 83.2895 226.897 83.2895 229.311Z" fill="#342016"/>
<path d="M32.5844 149.767H15.2747C15.0366 149.767 14.8666 149.563 14.8666 149.359C14.8666 149.155 15.0706 148.951 15.2747 148.951H32.5844C32.8225 148.951 32.9925 149.155 32.9925 149.359C32.9925 149.563 32.7885 149.767 32.5844 149.767Z" fill="#573828"/>
<path d="M134.165 65.5647C134.165 72.8763 139.13 79.2697 146.237 81.0721L150.726 82.1943V48.9351L146.237 50.0574C139.13 51.8597 134.165 58.2191 134.165 65.5647Z" fill="#5B7BFE"/>
<path d="M129.029 65.5655C129.029 68.7282 131.58 71.2787 134.743 71.2787H136.919V59.8182H134.743C131.58 59.8182 129.029 62.3688 129.029 65.5315V65.5655Z" fill="#5B7BFE"/>
<path d="M156.541 76.4474C156.303 76.4474 156.099 76.3454 155.929 76.1754C155.623 75.8353 155.623 75.2912 155.963 74.9851C156.779 74.237 160.894 70.122 160.588 64.1027C160.384 60.2599 158.548 57.4713 157.46 56.145C157.153 55.7709 157.221 55.2608 157.562 54.9548C157.902 54.6487 158.446 54.7167 158.752 55.0568C159.976 56.5531 162.051 59.6818 162.289 64.0007C162.629 70.6322 158.412 75.0531 157.119 76.2434C156.949 76.3794 156.745 76.4814 156.541 76.4814V76.4474Z" fill="#5B7BFE"/>
<path d="M161.404 80.9709C161.166 80.9709 160.928 80.8689 160.758 80.6988C160.452 80.3587 160.486 79.8146 160.826 79.5085C162.425 78.0802 167.696 72.7751 167.798 64.5113C167.866 58.2539 164.975 53.7309 163.241 51.5885C162.935 51.2144 163.003 50.7043 163.377 50.3982C163.751 50.0922 164.295 50.1602 164.567 50.5343C166.437 52.8468 169.566 57.7438 169.498 64.5453C169.396 73.5573 163.683 79.2705 161.949 80.8008C161.778 80.9369 161.574 81.0049 161.37 81.0049L161.404 80.9709Z" fill="#5B7BFE"/>
<path d="M166.744 85.4941C166.506 85.4941 166.267 85.3921 166.097 85.1881C165.791 84.814 165.859 84.3039 166.199 83.9978C167.73 82.7395 175.279 76.0061 175.551 64.9877C175.79 55.7377 170.858 49.3783 168.716 47.0998C168.41 46.7597 168.41 46.2156 168.75 45.9095C169.09 45.6035 169.634 45.6035 169.94 45.9435C172.219 48.3921 177.456 55.1595 177.218 65.0217C176.946 76.4482 169.498 83.4197 167.22 85.2901C167.05 85.4261 166.88 85.4941 166.676 85.4941H166.744Z" fill="#5B7BFE"/>
<path d="M153.379 70.4634C153.107 70.4634 152.835 70.3273 152.699 70.0893C152.426 69.7152 152.528 69.1711 152.903 68.899C153.345 68.593 154.773 67.4367 155.045 65.4303C155.385 62.8457 153.447 61.0773 153.379 61.0093C153.039 60.7032 153.005 60.1591 153.311 59.8191C153.617 59.479 154.161 59.445 154.501 59.751C154.773 59.9891 157.187 62.2676 156.711 65.6683C156.337 68.3549 154.433 69.9192 153.855 70.3273C153.719 70.4293 153.549 70.4974 153.379 70.4974V70.4634Z" fill="#5B7BFE"/>
<path d="M126.683 41.1144V31.2863H133.79V32.4425H127.975V35.4692H133.416V36.6254H127.975V39.9582H133.995V41.1144H126.649H126.683Z" fill="#5B7BFE"/>
<path d="M135.797 41.1144V31.2863H137.123L142.292 39.006V31.2863H143.551V41.1144H142.224L137.055 33.3947V41.1144H135.797Z" fill="#5B7BFE"/>
<path d="M150.318 37.2718V36.1155H154.467V39.7543C153.821 40.2644 153.175 40.6385 152.495 40.9106C151.814 41.1826 151.134 41.2847 150.42 41.2847C149.468 41.2847 148.584 41.0806 147.801 40.6725C147.019 40.2644 146.407 39.6523 145.999 38.8701C145.591 38.088 145.387 37.2038 145.387 36.2516C145.387 35.2994 145.591 34.4152 145.999 33.565C146.407 32.7488 146.985 32.1367 147.733 31.7286C148.482 31.3205 149.366 31.1165 150.318 31.1165C151.032 31.1165 151.678 31.2185 152.256 31.4565C152.835 31.6946 153.277 32.0006 153.617 32.4087C153.957 32.8168 154.195 33.3609 154.365 34.0071L153.209 34.3132C153.073 33.803 152.869 33.4289 152.665 33.1229C152.46 32.8508 152.12 32.6128 151.712 32.4427C151.304 32.2727 150.862 32.1707 150.352 32.1707C149.774 32.1707 149.23 32.2727 148.822 32.4427C148.38 32.6128 148.04 32.8508 147.767 33.1569C147.495 33.463 147.291 33.769 147.155 34.1431C146.917 34.7552 146.781 35.4014 146.781 36.1155C146.781 36.9997 146.917 37.7139 147.223 38.326C147.529 38.9041 147.972 39.3462 148.55 39.6523C149.128 39.9584 149.74 40.0944 150.386 40.0944C150.964 40.0944 151.508 39.9924 152.018 39.7543C152.563 39.5503 152.971 39.3122 153.243 39.0742V37.2378H150.352L150.318 37.2718Z" fill="#5B7BFE"/>
<path d="M156.337 41.1144V31.2863H157.63V39.9582H162.459V41.1144H156.303H156.337Z" fill="#5B7BFE"/>
<path d="M164.261 41.1144V31.2863H165.553V41.1144H164.261Z" fill="#5B7BFE"/>
<path d="M167.424 37.9519L168.648 37.8499C168.716 38.326 168.852 38.7341 169.056 39.0742C169.26 39.3802 169.6 39.6523 170.042 39.8223C170.484 40.0264 170.995 40.1284 171.539 40.1284C172.049 40.1284 172.457 40.0604 172.865 39.9244C173.239 39.7883 173.511 39.5843 173.715 39.3122C173.885 39.0402 173.987 38.7681 173.987 38.462C173.987 38.156 173.885 37.8839 173.715 37.6459C173.545 37.4078 173.239 37.2378 172.831 37.0677C172.559 36.9657 171.981 36.7957 171.097 36.5916C170.178 36.3876 169.566 36.1836 169.192 35.9795C168.716 35.7415 168.376 35.4354 168.138 35.0613C167.9 34.6872 167.798 34.2791 167.798 33.837C167.798 33.3269 167.934 32.8848 168.206 32.4427C168.478 32.0006 168.886 31.6946 169.43 31.4565C169.974 31.2185 170.586 31.1165 171.233 31.1165C171.947 31.1165 172.593 31.2185 173.171 31.4565C173.715 31.6946 174.157 32.0347 174.463 32.4768C174.769 32.9189 174.939 33.463 174.939 34.0411L173.681 34.1431C173.613 33.531 173.375 33.0549 173.001 32.7488C172.627 32.4427 172.049 32.2727 171.301 32.2727C170.552 32.2727 169.94 32.4087 169.566 32.7148C169.192 32.9869 169.022 33.3609 169.022 33.769C169.022 34.1091 169.158 34.4152 169.396 34.6532C169.634 34.8913 170.314 35.1293 171.369 35.3674C172.423 35.6054 173.137 35.8095 173.545 35.9795C174.123 36.2516 174.531 36.5916 174.803 36.9657C175.075 37.3738 175.211 37.8499 175.211 38.36C175.211 38.8701 175.075 39.3802 174.769 39.8223C174.463 40.2984 174.055 40.6385 173.477 40.9106C172.933 41.1826 172.287 41.2847 171.573 41.2847C170.688 41.2847 169.94 41.1486 169.328 40.9106C168.716 40.6725 168.24 40.2644 167.9 39.7543C167.56 39.2442 167.39 38.6321 167.356 37.9859L167.424 37.9519Z" fill="#5B7BFE"/>
<path d="M177.048 41.1144V31.2863H178.34V35.3332H183.441V31.2863H184.734V41.1144H183.441V36.4894H178.34V41.1144H177.048Z" fill="#5B7BFE"/>
</svg>
